# xmcd CD database file
#
# Track frame offsets:
#	150
#	26035
#	52015
#	73235
#	95757
#	119197
#	152925
#	175732
#	192777
#	218872
#	241277
#	262837
#	284170
#	311892
#
# Disc length: 4484 seconds
#
# Revision: 1
# Processed by: cddbd v1.5.1PL2 Copyright (c) Steve Scherf et al.
# Submitted via: CDex 1.51
#
DISCID=e011820e
DTITLE=Johnny "Guitar" Watson - Best of Johnny Guitar Watson
DYEAR=1900
DGENRE=Blues
TTITLE0=Superman Lover
TTITLE1=I Want To TA TA You Baby
TTITLE2=I Need It
TTITLE3=Ain't That A Bitch
TTITLE4=Funk Beyond The Call Of Duty
TTITLE5=Strung Out
TTITLE6=A Real Mother For Ya
TTITLE7=GangsterOf Love
TTITLE8=Nothing Left To Be Desired
TTITLE9=Tarzan
TTITLE10=Love Jones
TTITLE11=Telephone Bill
TTITLE12=What The Hell Is This?
TTITLE13=Booty Ooty
EXTD=
EXTT0=
EXTT1=
EXTT2=
EXTT3=
EXTT4=
EXTT5=
EXTT6=
EXTT7=
EXTT8=
EXTT9=
EXTT10=
EXTT11=
EXTT12=
EXTT13=
PLAYORDER=
